<?xml version="1.0" encoding="UTF-8" standalone="no"?>
<!-- Created with the Eggbot TSP art toolkit (http://egg-bot.com) -->

<svg
   xmlns:dc="http://purl.org/dc/elements/1.1/"
   xmlns:cc="http://creativecommons.org/ns#"
   xmlns:rdf="http://www.w3.org/1999/02/22-rdf-syntax-ns#"
   xmlns:svg="http://www.w3.org/2000/svg"
   xmlns="http://www.w3.org/2000/svg"
   xmlns:sodipodi="http://sodipodi.sourceforge.net/DTD/sodipodi-0.dtd"
   xmlns:inkscape="http://www.inkscape.org/namespaces/inkscape"
   height="800"
   width="3200"
   id="svg2"
   version="1.1"
   inkscape:version="0.48.0 r9654"
   sodipodi:docname="mona-lisa-25-230.svg">
  <title
     id="title2989">Mona Lisa TSP art</title>
  <defs
     id="defs12" />
  <sodipodi:namedview
     showgrid="false"
     showborder="true"
     inkscape:showpageshadow="false"
     id="namedview4"
     inkscape:zoom="0.11"
     inkscape:cx="18.181818"
     inkscape:cy="400"
     inkscape:window-width="715"
     inkscape:window-height="454"
     inkscape:window-x="20"
     inkscape:window-y="20"
     inkscape:window-maximized="0"
     inkscape:current-layer="svg2" />
  <metadata
     id="metadata6">
    <rdf:RDF>
      <cc:Work
         rdf:about="">
        <dc:format>image/svg+xml</dc:format>
        <dc:type
           rdf:resource="http://purl.org/dc/dcmitype/StillImage" />
        <dc:subject>
          <rdf:Bag>
            <rdf:li>Egg-Bot</rdf:li>
            <rdf:li>Eggbot</rdf:li>
            <rdf:li>TSP</rdf:li>
            <rdf:li>TSP art</rdf:li>
          </rdf:Bag>
        </dc:subject>
        <dc:description>TSP art created with the Eggbot TSP art toolkit (http://egg-bot.com)</dc:description>
        <dc:title>Mona Lisa TSP art</dc:title>
        <dc:creator>
          <cc:Agent>
            <dc:title>Dan Newman</dc:title>
          </cc:Agent>
        </dc:creator>
        <cc:license
           rdf:resource="" />
      </cc:Work>
    </rdf:RDF>
  </metadata>
  <g
     transform="translate(1440, 583) scale(1, -1)"
     id="g8">
    <path
       style="fill:none;stroke:#000000;stroke-width:1"
       d="m 25,363 5,0 1,-2 -1,-3 0,-3 2,-1 2,-3 3,0 1,-3 1,-3 0,-3 5,4 -1,-5 2,-1 -1,-5 5,0 4,1 -2,5 -1,4 0,4 -3,3 -3,-1 -3,2 -2,3 -3,-1 -1,2 -1,2 0,3 3,0 2,-2 4,0 1,-3 4,1 4,-2 3,-3 2,-4 1,-5 2,-5 3,-5 -6,-2 3,-5 6,-1 9,-2 7,2 8,0 9,1 7,1 7,-3 0,-9 9,4 5,-3 9,4 9,4 8,4 7,-1 5,-3 9,1 -3,5 -1,10 7,2 6,0 7,5 0,-7 5,-3 6,-1 4,0 4,-3 5,0 4,-2 1,-5 4,0 4,1 2,-4 4,0 -1,5 -1,4 -4,0 -4,0 0,5 -2,1 -5,0 -3,2 -3,3 -4,1 -5,-2 -2,4 -1,6 6,3 2,-5 5,1 3,-2 2,-4 4,-2 4,0 4,-1 0,-4 3,1 3,-1 2,-2 0,-4 1,-4 1,-4 0,-4 2,-4 3,1 0,5 4,0 1,-4 3,1 4,0 -2,-5 4,0 4,0 -1,5 -1,3 -4,2 -4,0 -2,3 -4,0 -2,1 -2,3 0,4 4,0 1,-3 4,0 3,0 1,-3 3,0 4,1 -2,-4 4,0 3,1 -1,3 -1,3 1,3 0,3 -4,2 -1,-3 1,-2 -1,-3 -3,1 -1,3 -3,-1 -3,0 -2,3 -2,1 -3,0 -3,0 -3,3 -3,0 -1,3 -4,1 -3,1 -3,1 -3,1 0,4 -4,0 -3,3 -3,1 8,1 4,0 5,1 -2,-4 1,-3 4,2 1,-2 2,-3 4,1 -1,3 -1,3 -4,3 3,0 4,1 1,-3 1,-3 1,-4 1,-3 -4,-1 3,-3 4,0 4,0 3,-1 0,-3 3,1 3,0 1,3 -3,1 -1,2 -4,0 -3,1 -3,1 1,3 -2,2 -1,3 -1,4 3,0 3,0 -1,-3 1,-2 3,-1 -1,-3 2,-1 2,4 2,-2 -1,-3 3,0 2,-2 2,-1 1,-3 2,-2 2,1 -1,3 0,3 -1,2 -3,0 -1,2 -2,2 -1,3 -3,0 -3,1 0,3 3,-1 4,1 2,-1 0,-3 3,0 0,-3 3,-1 2,-1 0,4 -2,1 -2,4 2,-1 4,1 1,-2 1,-2 -1,-3 0,-3 0,-3 -3,0 1,-3 3,0 1,-2 0,-3 -4,2 -1,-3 2,-1 3,-1 3,1 -1,-3 3,0 1,-2 1,-3 0,-3 1,-3 1,-2 1,-3 3,-1 3,-1 1,-2 1,-2 2,-2 1,-2 3,-1 1,3 3,-1 -1,-3 1,-3 -3,-1 -2,2 -3,1 0,-3 2,-2 1,-2 1,-3 0,-3 3,1 -1,-3 2,-1 3,-1 2,-1 -1,-3 3,0 3,-1 1,3 -2,2 -1,2 -1,2 -1,2 -3,-3 0,3 -1,2 -3,1 0,3 3,0 2,1 1,-3 3,0 2,-1 -2,4 -1,2 -3,1 -1,2 0,3 1,3 0,3 -3,0 -1,-3 -3,1 -3,0 -1,2 0,3 -3,1 -2,1 -3,1 0,3 -2,2 0,3 -1,2 -1,3 3,0 2,-2 1,-2 -1,-3 2,-3 2,-1 3,-1 2,-1 1,-3 2,-2 1,4 2,-2 3,1 3,-1 2,-1 1,4 -1,1 -3,0 0,3 3,0 0,3 -4,0 -2,2 -1,2 -3,0 1,3 -3,0 2,4 -2,-1 -1,3 -4,0 -3,0 1,-3 3,0 1,-3 1,-3 -2,-3 3,0 3,0 2,-2 2,-2 -1,-3 -3,1 -1,2 -3,0 -2,1 -3,1 0,3 1,3 -1,2 -3,1 -1,2 -1,2 -4,0 1,-3 -3,0 -1,3 -3,1 3,2 -2,2 -2,2 -1,3 3,0 2,-2 2,-2 2,-2 2,-1 1,3 -2,2 -2,2 -2,2 -1,2 -1,2 -3,-3 0,3 0,4 2,-1 4,1 1,-2 1,-2 1,-2 1,-2 2,-2 2,-3 0,-3 3,1 3,-1 -1,4 -2,2 -2,2 -1,2 -1,2 -1,2 -1,2 5,0 1,-2 1,-2 1,-2 1,-2 2,-2 0,-3 1,-3 3,-1 2,-2 0,-3 3,1 -1,-3 2,-1 0,-3 2,-1 3,0 0,4 -1,1 -1,2 2,3 -3,0 -1,2 -2,1 -2,2 -3,0 1,3 -1,1 -1,2 -1,2 -1,2 -1,2 -1,2 5,0 1,-2 1,-2 1,-2 2,-2 0,-3 2,-2 2,3 0,3 -1,1 -1,2 -1,2 -1,2 5,0 1,-2 3,1 -1,-3 1,-1 -1,-3 1,-1 1,-3 -4,0 -1,-3 3,0 1,-2 0,-3 0,-3 0,-3 1,-2 0,-4 -3,0 1,-3 1,-2 -1,-3 1,-1 -1,-3 1,-1 0,-3 0,-3 -2,-1 -2,2 0,3 -3,1 0,-3 0,-3 2,-2 2,-2 4,2 0,-4 -3,0 1,-3 1,-2 -1,-3 1,-1 -4,1 2,-4 2,-1 0,-3 0,-3 0,-3 -3,1 -1,-3 2,-2 2,1 1,-3 0,-4 -4,2 1,-2 1,-3 1,-2 -1,-3 1,-1 0,-4 -2,1 -3,1 -3,0 -1,2 -2,2 -3,0 -1,2 -3,1 -4,1 -1,2 -1,2 -2,2 -2,1 -1,2 -1,2 -1,2 1,3 3,-2 2,-2 1,-2 2,-2 2,-2 1,-2 1,-2 3,-1 0,3 -1,3 -2,2 -2,2 -1,2 -2,2 -2,2 -2,2 -3,0 1,3 0,3 -1,2 1,3 3,-2 0,-3 1,-2 1,-2 2,-2 2,-2 3,-3 1,-2 2,-2 3,0 -1,-3 0,-3 1,-3 1,-1 2,-2 4,-2 -1,1 0,3 -1,2 -2,2 -1,2 4,1 -2,2 0,3 -1,2 -3,-1 -2,2 0,3 -3,-1 -1,2 -2,2 -2,2 0,3 -1,2 -1,2 -2,2 -1,2 -3,0 -2,2 0,3 3,-1 3,-1 0,3 -2,2 -1,2 -1,3 -3,1 -3,3 -2,2 -1,2 -1,2 1,3 -1,2 -2,2 -3,-1 0,3 -4,1 1,-2 -1,-3 2,-3 3,1 0,-3 0,-3 2,-2 0,-3 3,0 2,-2 1,-2 3,-1 0,-3 -3,1 -3,-1 -1,3 -2,1 -3,1 -1,4 -2,2 -1,3 -4,-2 0,-4 3,-2 1,-3 1,-3 4,0 1,-3 4,0 3,0 -1,-3 2,-1 2,-2 0,-3 -3,1 -3,0 -2,1 0,3 -4,1 0,-3 1,-4 -4,0 -4,0 2,4 -2,2 4,3 -4,2 -2,3 -5,-2 2,-3 0,-4 0,-4 -5,1 -2,3 0,5 -2,1 -3,3 -3,1 -6,-2 -5,2 -1,5 -5,-5 -2,4 -5,-2 2,6 -5,-1 -4,5 -3,3 -4,-1 -4,3 -6,-1 -3,3 -5,2 -8,-1 1,-5 6,-2 2,-5 7,2 3,-1 5,-3 5,0 3,-2 1,-6 4,-4 5,0 6,0 4,-2 6,1 4,0 3,-4 2,-4 3,-3 5,0 5,0 3,-2 2,-3 4,-1 -1,5 3,0 1,-2 1,-3 1,-2 2,-2 2,-1 0,4 0,3 -2,2 -1,3 3,0 3,0 0,-3 1,-1 0,-3 -1,-3 0,-3 0,-3 0,-3 2,-1 2,-2 3,-1 0,-3 1,-2 3,-1 1,-2 3,1 1,-2 0,-3 -1,-3 0,-3 1,-2 2,-1 2,-2 0,-3 1,-2 3,1 1,3 -1,2 -1,2 0,3 -2,-1 -2,2 0,3 0,3 3,-1 0,-3 4,0 1,-2 3,1 3,-1 1,-1 0,-3 0,-3 -3,0 -1,4 -3,0 1,-3 0,-3 3,-1 3,0 0,-3 0,-3 0,-3 -3,1 0,3 -1,2 -3,1 -3,-2 2,-2 1,-1 0,-3 -1,-3 1,-4 0,-3 3,1 1,3 -2,2 1,3 3,-1 1,-1 1,-3 -2,-3 1,-2 0,-3 -3,1 -3,0 0,-3 3,-1 3,0 0,-3 0,-3 0,-3 -3,1 -1,2 1,3 -3,1 -3,0 -3,0 0,3 3,1 -1,2 -1,3 1,3 -1,2 -3,0 0,-3 -1,-3 1,-2 -1,-3 -3,1 -4,0 -3,-1 -3,1 3,2 -1,2 -3,0 -2,2 -3,2 -1,2 -3,-1 0,4 -3,1 -4,1 -3,3 -2,2 -1,4 0,4 -5,-3 0,4 -4,0 -1,3 0,3 -1,2 -3,0 -3,1 1,3 3,-1 -1,4 0,3 0,3 -3,1 -2,2 -2,3 -4,-3 -2,2 -5,-2 -1,3 -1,5 4,0 4,-2 1,5 4,-2 3,-1 2,-4 2,-3 4,0 -1,4 -3,4 4,1 3,-3 1,-3 2,-2 4,0 -1,4 4,0 0,-3 4,0 3,-1 0,-3 1,-3 3,-1 2,-2 0,-3 3,-1 -3,-2 3,-1 3,0 2,-3 -2,-3 -1,3 -3,-1 -3,1 -4,-2 1,4 0,3 0,3 -2,1 -3,1 0,3 -1,3 -3,0 -4,-2 1,-3 3,1 -1,-4 0,-3 4,1 2,-2 0,-4 -3,-1 -1,3 -3,-1 -3,2 0,3 -2,3 -1,3 0,3 -3,1 -2,-4 0,-3 1,-1 0,-3 3,0 0,-3 1,-3 2,-1 4,-1 4,-2 0,-4 1,-4 2,-4 2,4 2,-4 2,-2 3,-1 1,-2 3,-1 1,3 2,-3 -3,-3 2,-2 3,-1 0,3 1,3 -1,3 0,3 -3,1 -3,-1 -1,3 -2,-1 -3,2 4,2 -2,2 -3,0 -4,0 0,4 4,0 2,1 3,-1 2,-2 2,-2 1,-2 1,-2 3,0 0,3 3,-2 -1,-3 1,-1 0,-3 1,-2 -1,-3 0,-3 -1,-3 1,-2 3,-1 0,3 1,3 -1,2 1,3 0,3 3,-3 3,-1 0,3 -2,2 -1,2 -3,0 0,3 0,3 -2,1 -2,2 -3,0 -3,1 1,3 3,-1 1,3 -1,2 1,3 -3,-1 -1,3 -2,1 -2,2 -1,2 -1,2 -2,2 -3,1 0,3 -1,3 -2,1 -3,1 -1,2 -3,1 -3,1 -4,-2 -1,3 -2,3 -4,0 -4,0 -4,-1 -2,3 -3,1 -1,5 -4,0 -1,-8 -4,0 -2,4 -2,3 -4,2 -6,0 -5,1 -5,3 -2,5 -4,3 -4,3 -6,0 -6,0 -6,-3 0,9 -4,-1 -7,-2 -17,-2 5,-6 7,-4 5,-2 7,-3 7,3 6,2 4,-1 4,-2 3,-6 4,-3 6,-1 5,-1 4,1 3,-3 4,-3 0,-5 -5,1 -1,-5 3,-1 4,0 2,-3 -4,-2 -1,-4 3,1 0,-3 2,-1 1,-3 3,1 0,3 -1,2 -1,3 4,2 4,-1 3,1 2,-2 3,-2 0,-3 -3,1 -3,0 -2,1 -3,1 0,-4 0,-3 1,-2 1,-2 -3,-2 2,-2 1,-2 1,-2 3,1 0,-4 2,-2 4,-1 0,5 -3,1 0,3 -1,2 -3,0 1,3 -1,2 -1,4 2,-1 3,0 0,-4 2,-2 3,0 -1,-3 2,-1 1,-3 1,-4 3,-3 4,-1 2,-5 4,-2 -1,-5 4,-1 2,5 3,-2 0,-4 0,-3 -2,-4 -3,2 -2,1 -4,0 -5,0 2,6 -3,2 -3,3 -5,3 -6,-1 0,-7 4,-2 4,-4 -1,-6 4,0 4,0 4,-1 1,-4 2,-3 3,-3 3,-2 3,0 0,-3 2,-1 3,-1 0,3 0,3 -1,2 -3,1 -2,2 -2,1 -1,3 -2,2 6,1 2,-2 1,-3 3,-1 2,-1 2,-2 -1,-3 3,0 1,-2 3,1 1,3 -1,3 -2,-1 -2,2 -1,2 -2,2 -3,0 1,3 -3,1 -1,3 1,4 3,0 0,-3 3,1 0,-3 1,-2 1,-2 3,1 0,-3 1,-2 3,3 0,3 3,0 1,-2 3,1 -1,-3 3,0 1,-3 3,0 0,3 3,-1 0,-4 3,-1 2,-2 2,1 1,-3 0,-4 -3,0 -1,2 -2,2 -2,2 -3,1 -2,1 -4,1 -1,2 -3,1 -3,0 1,-3 0,-3 3,1 3,-1 1,-2 -1,-3 -3,2 -3,0 1,-3 2,-1 3,-1 1,-1 -1,-3 3,-1 2,-2 3,-1 1,-2 3,-1 1,3 -1,2 -3,1 -1,2 -3,1 0,3 -1,2 0,3 3,-1 2,-2 -1,-3 3,0 1,-3 3,2 1,-2 0,-3 0,-3 -1,-3 1,-1 1,-3 -2,-3 1,-2 0,-3 0,-3 0,-3 0,-3 0,-3 1,-2 -4,3 -1,2 1,3 -1,2 0,3 1,3 -1,3 1,3 -2,2 -3,1 1,-4 -3,1 0,-3 0,-3 3,1 -1,-3 1,-2 -3,-2 1,-2 2,-1 -1,-3 1,-2 2,-2 2,-1 0,-3 3,0 0,-3 0,-3 0,-3 0,-3 0,-3 1,-3 -2,-3 1,-2 0,-3 -3,1 -2,2 -1,-4 -2,2 -1,2 -1,2 -1,2 -1,2 -3,1 -2,2 -1,2 -3,0 -1,2 -1,2 -3,1 1,3 3,-1 3,-1 1,-2 3,2 0,-3 1,-3 2,-1 0,4 1,3 3,0 1,-2 1,-3 -3,0 0,-3 1,-2 1,-2 1,-2 3,1 1,3 -2,2 1,3 0,3 0,3 -1,2 -2,1 -1,2 -2,3 -2,2 0,4 -3,1 -2,2 0,3 3,-1 1,3 -2,2 -2,-1 -3,1 -1,2 -2,2 -1,3 -3,0 -1,-3 2,-2 1,-2 1,-2 -1,-3 1,-1 3,2 0,-3 1,-2 -2,-3 -2,2 -3,0 -2,1 -1,2 2,3 0,3 -2,2 -1,3 -2,2 -2,2 -1,3 3,0 3,-3 4,2 -2,2 -2,-1 -1,3 0,3 3,-1 0,3 3,-1 0,-3 1,-2 3,1 -1,-3 1,-2 1,-1 1,-3 2,-2 3,0 -1,3 -2,2 4,1 1,3 -3,-1 -3,1 3,2 -2,2 -3,1 -1,2 -1,2 -3,1 0,3 -3,0 -1,-3 -2,-1 -1,3 -2,2 -1,-4 0,-3 1,-2 -1,-3 -3,-1 -1,2 -1,2 2,3 -4,0 -4,0 -1,2 -2,1 -2,2 -2,3 -4,2 -3,1 0,4 -6,-1 0,-5 -5,0 -1,5 -5,1 3,7 -5,2 -5,-1 -5,0 -4,4 -3,3 -1,3 -1,3 -4,0 -3,4 -2,3 -3,1 -3,0 1,4 3,-1 0,3 1,3 0,3 -3,0 0,-3 -3,1 -2,2 3,2 -3,1 -3,0 0,-3 1,-3 2,-2 2,-1 -3,-3 -2,2 -2,2 -1,2 -3,0 2,3 -1,1 -2,2 -1,3 5,-1 4,2 -2,4 -1,3 -5,-1 -2,2 0,4 4,0 2,-1 1,5 3,-3 1,-3 1,-3 3,-2 0,-4 3,-2 2,-2 3,-1 1,-3 4,1 2,-1 1,-3 2,1 1,-3 2,-2 -1,-3 -4,0 0,3 -3,0 -1,2 -1,2 -3,0 0,-3 -1,-3 3,0 2,-3 2,-3 4,0 3,-2 0,-4 3,-2 3,-3 6,2 -1,5 -3,2 -3,2 -3,3 1,4 3,0 3,-1 4,-3 0,5 -2,2 -3,0 1,3 -1,2 -1,3 1,3 -3,0 -3,0 1,-3 1,-3 0,-3 1,-1 -4,1 0,3 -2,2 -1,1 1,3 -2,2 4,1 -2,2 -3,1 -1,3 -3,1 4,3 -4,1 -3,1 1,4 0,5 -3,1 -5,1 -4,3 3,-9 4,-2 -2,-4 1,-3 2,-2 2,1 1,-3 2,-1 2,-2 1,-2 1,-3 -4,-1 -1,4 -3,0 -1,3 -3,1 -2,3 -2,2 0,4 -2,4 -2,3 -3,3 -1,5 -4,3 -7,1 0,-6 3,-3 3,-2 2,-4 -4,-2 -4,2 -3,3 -3,4 0,6 -3,1 -7,4 1,-7 2,-4 3,-3 2,-3 2,-3 3,-2 2,-2 1,-3 -1,-4 1,-5 0,-4 2,-2 1,-2 1,-1 0,-3 2,-2 3,-1 1,-2 1,-2 3,-1 2,-3 3,-3 4,-1 2,-2 2,-3 4,0 -1,-5 1,-8 0,-6 9,-2 0,-8 -9,0 -9,-3 -3,6 -12,2 -9,-4 0,11 -2,8 -1,5 -3,2 -4,0 -3,3 -3,2 -6,-1 1,-4 2,-3 2,-4 5,-2 -2,-10 -6,2 -3,3 -2,4 -1,4 -1,5 -4,-1 1,-4 -1,-5 1,-4 -1,-5 4,-1 5,-4 -4,-1 -6,0 -5,-1 0,-5 5,0 6,-1 3,-4 1,-6 -6,0 -2,3 -3,3 -4,-4 -3,3 -3,2 1,5 -1,4 -3,4 -3,2 -2,4 5,3 -2,3 -3,1 -3,3 6,2 -1,3 -2,3 -4,0 -5,1 -8,1 -3,4 -5,3 -1,-5 -5,2 -6,0 2,-4 3,-2 1,-5 6,3 1,-5 4,-1 4,-2 5,-2 5,-4 -1,-7 3,-3 3,-3 4,-2 -1,-6 1,-4 2,-4 4,1 3,-3 4,1 2,-3 5,-1 4,0 4,-2 5,-2 4,-4 -1,-7 4,-4 -2,-8 5,1 2,-6 4,-3 1,-7 3,-3 1,-5 4,-3 4,1 0,-5 2,-4 4,1 1,-5 1,-3 5,0 1,-4 2,-2 5,2 4,0 2,-3 4,2 2,-4 0,-4 2,-1 1,-3 2,-2 2,-2 2,-1 1,-3 2,-3 2,-2 2,-2 3,3 2,-2 2,-1 3,-1 2,1 1,-3 3,1 3,-1 -1,4 -3,1 -2,2 -3,-1 2,4 0,3 -3,1 -1,-3 0,-3 -3,1 -4,-1 -2,2 -2,2 0,3 -3,2 -2,3 -2,3 -2,3 0,4 -2,2 -1,3 -4,-1 -2,3 -4,0 -4,-1 -2,4 -4,2 -3,3 -2,4 -4,0 0,6 -4,2 -4,-1 -1,5 1,6 -3,2 -3,9 5,-2 6,-2 2,-4 -2,-6 4,-1 3,-2 5,-2 -4,-3 4,-2 2,-5 3,-3 4,1 0,-5 4,0 4,0 2,-2 4,0 2,-2 1,-3 4,0 0,4 0,4 -2,1 -4,1 -2,2 -4,0 -4,0 1,4 -4,1 -4,0 -3,3 2,5 4,-2 3,-1 4,0 2,-2 2,-3 3,1 0,4 -2,3 -4,1 -4,1 -4,1 -5,1 -4,1 -4,3 -2,5 6,2 1,-5 5,0 3,-2 4,-1 4,-1 4,0 2,-1 3,-3 2,4 -1,3 -2,2 -4,0 -4,0 -4,1 -3,3 -4,1 -1,4 -5,2 -6,-2 -6,2 -4,4 -7,1 -5,0 -4,5 0,7 -1,5 -6,1 -5,3 0,8 -4,6 7,3 5,-7 4,-4 6,4 7,2 2,-10 -6,-2 -2,-11 6,1 6,-1 5,-3 3,-4 3,-3 6,2 3,-3 6,2 4,0 -1,-5 -5,-2 4,-3 3,-2 4,-1 3,4 -4,2 0,4 4,-2 4,-2 1,-4 -3,-1 3,-3 4,0 2,-3 -4,0 0,-4 3,0 0,-3 2,-2 1,-4 2,-3 1,-3 -4,-1 -2,2 -1,3 -1,3 -2,3 -3,-1 0,-4 2,-3 -5,-2 2,-3 4,1 2,-2 4,-1 3,1 2,-2 2,4 2,-2 0,-3 2,-2 2,-2 -2,-3 4,-2 2,-2 2,-2 0,-3 0,-3 -3,1 -1,3 -1,2 -2,-1 -1,3 -1,1 -3,1 -1,-4 2,-2 0,-3 -3,1 -3,2 1,4 -2,1 -1,3 4,0 4,2 -2,2 -4,0 -2,1 -4,1 0,-4 0,-3 1,-3 1,-4 2,-3 -4,-1 -2,3 -1,3 -4,0 1,-4 1,-3 2,-2 2,-2 2,-2 1,-3 1,-3 3,1 0,3 -1,3 -2,3 3,1 3,0 0,-3 1,-3 3,0 0,3 0,3 3,3 1,-3 3,0 3,-1 1,-2 2,-2 2,-2 3,-1 3,-2 3,0 -1,3 -2,2 -3,0 1,3 -3,-1 -2,2 0,3 3,-1 1,3 -2,2 -2,-1 -1,3 -1,3 -1,2 -1,2 -3,0 1,3 -1,2 -3,2 1,4 -1,2 -2,1 -3,1 -1,3 -2,2 0,3 -1,2 -2,3 1,4 3,-3 2,-2 2,-2 0,-3 3,0 2,-1 -4,-3 3,-1 3,0 1,-2 3,0 3,-1 3,0 3,1 -2,3 -2,2 -2,-3 -2,2 -3,1 0,3 3,-1 0,3 -1,3 -3,0 -1,-3 -3,1 0,3 -3,0 -1,3 -3,1 -2,2 -3,1 -1,2 0,3 -4,-2 0,3 0,3 -3,2 -3,2 -1,4 -3,-1 -3,3 -4,1 -6,-1 -5,3 -5,0 0,8 -5,0 -6,4 8,5 7,2 3,-5 1,-6 5,-4 4,0 5,0 3,1 1,-5 4,1 2,-2 -1,-4 3,-2 2,-2 2,-4 3,-2 1,-3 2,-2 2,-2 3,-1 1,-2 3,-1 2,-1 -1,4 -2,2 -4,2 -1,3 -2,2 -1,3 -2,2 -2,1 -1,3 -3,2 1,4 -2,3 -5,1 0,4 -6,1 -5,1 -5,0 0,10 4,-1 4,-1 3,-3 4,-2 3,1 3,-3 0,-4 4,-1 2,-3 0,-4 2,-3 2,-2 2,-2 1,-3 2,-2 1,-3 1,-2 3,-2 2,-2 3,0 3,0 -1,3 -3,1 -2,1 -1,2 -2,2 -1,3 -2,3 -1,3 -2,2 0,3 -3,0 2,4 -3,1 -2,4 -2,2 -3,4 -1,4 -5,-1 -2,3 -3,3 -5,1 -2,5 1,8 5,-5 3,-3 5,-2 2,-3 4,0 1,5 5,0 3,-2 2,-3 1,-3 2,-2 3,1 4,1 0,-3 2,-2 0,-3 3,0 0,-3 3,-2 2,-2 0,-3 1,-2 1,-1 -1,-3 -1,-3 0,-3 3,1 3,-1 3,-1 3,-1 3,1 1,3 3,-1 -1,-3 1,-2 1,-1 3,-1 0,-3 -3,0 -3,0 -2,1 0,3 -3,0 0,-3 -3,1 -1,2 -2,2 -3,0 -3,0 1,-3 1,-2 3,1 -1,-3 0,-3 1,-3 2,-1 1,-3 2,-2 2,1 1,-3 2,-1 3,0 -1,-3 2,-1 -4,-2 3,-1 3,0 0,-3 3,0 3,-1 2,-2 1,3 3,0 0,-3 1,-2 0,-4 -3,1 -1,2 -3,0 -2,2 -3,-1 -1,2 -3,0 -1,3 -2,-1 -2,2 -1,3 1,3 -3,0 -1,2 -2,2 -2,2 -1,2 -2,2 -1,2 -1,2 0,3 -2,2 -1,3 0,3 -3,0 0,3 3,1 0,3 0,3 0,3 0,3 -2,2 -2,1 -2,2 -3,0 0,3 0,3 -4,0 0,-4 -3,1 -2,3 -2,3 -2,3 -2,3 -2,-5 1,-4 3,-2 2,-3 1,-3 4,0 3,-1 3,-1 1,-1 3,-1 1,-2 1,-3 0,-3 -3,2 -3,0 1,3 -3,0 -3,1 -2,2 1,-5 2,-2 0,-3 3,0 3,0 1,-2 -4,-1 0,-3 3,1 0,-3 3,0 -1,-3 3,0 1,-3 1,-2 -1,-3 2,-2 1,-2 2,-2 1,-2 1,-3 2,1 1,-3 2,-1 1,-3 1,-2 2,-2 2,-2 1,-2 3,1 3,-2 3,0 1,-2 3,0 1,-2 3,0 1,-2 1,-3 -3,0 -2,2 -4,2 0,-3 2,-2 4,-2 3,-1 -2,-3 1,-2 1,-3 -3,0 -2,2 0,3 -1,2 -2,1 -3,1 -1,1 0,3 -2,1 1,3 -3,-1 0,3 -3,0 -1,-3 2,-3 2,-2 0,-3 2,-2 3,-1 2,-2 -3,-1 -3,1 -2,1 -2,2 0,3 -2,1 -1,2 -1,2 0,3 1,3 -3,0 1,3 -3,-1 -3,1 3,2 -1,2 0,3 -3,0 -1,2 -2,2 -1,2 -1,3 -2,-1 -1,3 -1,1 -1,2 -1,2 -4,0 1,-3 1,-3 2,-2 -1,-3 3,0 2,-2 1,-2 2,-2 0,-3 3,1 -1,-3 0,-3 1,-2 3,0 2,-2 0,-3 1,-3 -2,-1 -2,2 0,3 -3,-1 -1,2 -2,2 -1,2 0,3 -3,0 0,-3 -3,1 -1,2 -3,1 -4,-1 0,-3 3,0 1,-2 0,-3 3,-1 0,3 3,0 3,-2 -2,-1 -1,-3 -3,0 1,-3 1,-1 2,-2 3,-1 0,3 -1,2 1,3 3,-1 1,-2 2,-2 2,-2 3,0 0,3 3,-1 0,-3 1,-2 2,-1 -2,-3 2,-1 -1,-3 -3,1 0,-3 2,-2 3,-1 3,-1 1,-2 2,-2 2,1 -1,3 -1,3 -3,0 -2,2 1,3 0,3 3,0 0,-3 1,-2 3,-1 1,-2 1,-3 3,1 0,3 -1,2 -1,2 -3,1 0,3 3,-1 4,-2 3,-1 -2,-3 1,-2 -1,-3 1,-1 0,-3 0,-3 -2,-1 -2,2 0,3 -3,0 -1,-3 1,-2 2,-2 2,-2 4,2 0,-4 -3,0 1,-3 1,-2 0,-3 0,-3 -1,-3 1,-1 -1,-3 1,-1 1,-3 -2,-3 1,-2 -4,2 1,3 -2,2 0,3 1,3 -2,2 3,2 -1,2 0,3 -2,1 0,3 -1,2 -3,1 0,-3 0,-3 1,-2 2,-2 -3,-2 1,-2 1,-3 0,-3 -1,-3 2,-2 0,-3 1,-3 3,0 3,-1 0,-3 -3,0 0,-3 3,0 0,-3 0,-3 0,-3 0,-3 0,-3 -3,1 0,3 0,3 0,3 -1,2 -3,0 -2,1 -3,1 0,-4 3,-1 2,-1 -1,-3 1,-1 0,-3 1,-2 2,-2 3,0 1,-1 -1,-3 1,-1 -1,-3 1,-1 0,-3 0,-3 0,-4 -1,1 -2,2 -3,0 0,-3 -4,1 -1,2 1,3 -2,2 -2,2 -3,-2 2,-2 1,-2 -1,-3 -3,1 -1,3 -2,2 -3,1 0,3 3,1 1,-2 4,2 -1,2 -2,2 -1,1 -1,3 3,0 -1,3 -2,2 -3,0 0,-3 -1,-3 1,-2 1,-3 -3,0 -2,2 -3,-1 -3,1 0,-3 -4,-1 2,-2 -1,-3 1,-1 3,-1 1,3 0,3 3,1 1,-2 0,-3 2,-2 3,-1 1,-2 -4,-1 -3,0 -1,3 -2,-3 -3,1 -3,0 -3,2 -1,2 2,3 -3,0 1,3 -3,-1 -1,2 -1,2 -1,2 -3,0 -1,-3 2,-2 0,-3 -3,1 -3,1 0,-3 1,-3 2,1 3,0 3,2 0,-3 1,-1 3,-3 -3,0 -4,0 -2,2 -3,-2 -3,1 -3,-2 -1,3 0,3 3,-1 0,3 -2,2 -3,0 -3,0 1,-3 1,-2 -1,-3 -4,-2 1,3 -3,0 -1,3 3,0 0,3 1,3 -3,1 -1,-3 -4,0 1,-3 0,-3 0,-3 -3,1 -1,2 1,3 -3,0 1,3 -3,-1 0,3 -1,2 -2,1 0,3 3,0 3,-1 3,1 1,-2 -4,-2 3,-1 3,0 2,3 -1,3 -1,2 0,3 4,-2 0,-3 3,1 -1,-3 1,-2 3,0 1,-2 3,1 3,-1 2,1 2,3 -3,0 1,3 -4,0 0,-3 -3,1 -2,1 0,3 -2,2 -1,2 -3,-1 -1,2 0,3 -1,3 -3,1 0,-3 1,-3 -2,-1 -2,2 -1,2 0,3 -3,1 -2,2 -1,2 0,3 -1,2 -2,2 0,3 3,-1 2,-2 3,-1 -1,-3 0,-3 3,1 0,-3 3,0 3,0 2,-1 3,-1 -1,-3 1,-2 3,2 0,-3 1,-2 2,-2 1,-2 3,0 3,0 3,0 0,-3 4,1 2,-1 3,-1 0,-3 3,-1 3,0 -1,3 -2,1 0,3 -3,0 1,3 1,3 -3,-1 0,3 -3,1 0,-3 1,-4 -3,0 -1,2 -1,3 1,3 -2,1 -1,2 -2,2 -2,2 -2,2 0,3 3,-1 2,-2 2,-2 2,1 1,-3 2,-1 1,-2 3,0 2,-2 3,-1 0,3 -2,2 -1,2 -3,0 -2,2 0,3 3,-1 3,-1 3,0 1,-2 1,-1 3,-1 3,-1 0,-3 -3,1 -3,0 1,-3 3,-1 1,-2 -1,-3 -3,1 -1,2 -3,0 0,-3 2,-2 1,-2 1,-2 3,-1 0,4 3,-2 1,3 -1,2 2,3 3,0 -1,3 -3,0 1,3 4,0 3,0 -1,-3 1,-2 1,-2 2,-1 1,-2 1,-2 -1,-3 1,-2 1,-2 2,-2 1,-2 2,-2 1,-3 3,0 0,3 -1,3 -1,1 1,3 -3,0 -1,1 -1,2 -1,2 0,3 -1,3 -1,2 -2,2 -1,2 1,3 -2,1 0,3 -1,3 -1,2 0,3 3,0 1,-3 1,-2 1,-2 1,-2 3,-1 3,0 0,3 -3,1 -1,3 -1,2 -1,2 -1,2 1,3 1,3 -3,0 1,3 0,3 0,3 0,3 -1,2 0,3 0,3 3,0 -1,3 -3,1 -3,0 0,3 -2,-1 -1,3 -2,-1 -2,3 -2,2 1,3 -1,2 -4,0 0,3 3,0 4,0 -1,2 -3,1 -3,1 -2,2 -1,-4 -3,0 0,-3 3,0 -1,-3 2,-2 3,0 -1,-3 1,-2 1,-1 3,-1 1,-3 2,-2 2,-2 4,0 -1,-3 1,-3 -3,-2 -1,2 0,3 -3,1 -2,1 -1,2 -3,0 1,3 -3,-1 -1,2 -3,0 -3,-2 -1,2 -1,2 -3,1 -3,-1 0,3 -3,-1 0,3 -1,2 -3,1 -1,-3 1,-2 -1,-3 1,-2 3,1 -1,-3 2,-1 1,-3 2,-1 1,3 -1,3 3,0 1,-3 1,-2 2,-1 3,0 0,3 3,-1 0,-3 3,1 2,-2 3,-1 1,-2 1,-2 2,-2 2,-1 3,2 0,-3 1,-2 -1,-3 0,-3 1,-3 0,-3 -3,1 -1,2 0,4 0,3 -1,2 -3,1 -2,2 -2,2 -1,3 -3,1 -3,0 1,-3 2,-1 1,-3 1,-1 -1,-3 2,-2 2,-1 0,4 3,-2 0,-3 1,-2 0,-3 0,-3 1,-2 -1,-3 -2,-1 2,-2 2,-1 1,-2 -3,-1 -3,1 -2,2 -3,0 -2,2 0,3 -1,2 1,3 -3,0 -2,2 -1,2 -1,3 3,0 2,-2 2,-2 3,-1 0,-4 0,-3 1,-2 3,3 0,3 -1,2 0,3 -3,1 -2,2 -2,2 -1,2 -2,2 3,2 -3,1 -1,3 0,3 -3,1 0,-3 0,-3 1,-3 1,-4 -3,-1 -1,2 -1,2 -1,2 0,3 1,3 0,3 -3,-1 -1,-3 0,-3 -1,-3 1,-2 0,-3 2,-1 2,-2 0,-3 2,-1 2,-3 2,-2 1,-3 -3,0 -2,2 -3,0 1,3 -3,0 -1,2 1,3 -3,-1 0,3 -3,0 1,3 -1,2 1,3 -3,0 3,3 1,3 -3,1 -1,-3 -3,1 -2,2 -3,1 -4,2 1,-2 0,-3 3,-1 2,-2 3,0 -1,-3 1,-2 1,-2 1,-2 0,-3 3,-1 0,-3 2,-2 2,-2 0,-3 -3,1 -2,2 -2,1 -3,0 2,3 -2,1 0,3 -2,1 -3,1 -3,0 0,-3 1,-2 3,1 0,-3 1,-2 -1,-3 -3,2 -2,1 -1,2 -2,2 -1,2 -1,3 3,0 0,3 0,3 3,-2 3,-1 3,-1 -2,4 -2,1 -1,2 -3,0 -1,2 0,3 -1,2 -2,2 -2,-1 -1,3 -2,3 -2,-3 1,-3 1,-3 3,-1 1,-2 1,-3 -4,0 -1,2 -3,0 -1,2 0,3 -1,3 -3,-1 -3,0 0,3 -1,3 -4,0 -2,2 -3,2 -3,2 -3,2 0,4 5,1 2,-2 2,-3 3,-1 2,-2 3,-1 2,-3 1,-3 3,2 2,3 -3,1 -1,3 -3,1 -2,2 -2,3 -2,1 2,4 -5,-1 -2,3 -4,-2 -5,-1 -3,-1 -1,5 -2,1 -4,2 -2,5 -5,-3 -1,4 2,6 -3,2 -2,3 -2,1 -2,3 -2,3 -3,3 -1,4 -4,-1 -3,5 -4,3 -3,3 -3,1 -3,1 -2,1 0,3 4,2 1,-3 5,2 -2,5 -3,2 -3,4 6,2 -4,4 -3,-1 -2,3 -3,-1 -2,3 -5,1 -4,1 -4,2 -7,3 -2,5 0,7 -6,0 -7,2 -7,-2 -5,-2 -6,1 -7,2 -1,-8 4,-3 6,-3 6,1 2,-5 6,2 7,3 3,-3 4,-3 4,0 3,-3 2,-2 4,0 5,1 2,-3 3,-3 2,-1 1,-4 4,0 0,-4 -4,-2 -3,2 -3,-1 -1,4 -2,4 -4,2 -5,-1 -5,1 -4,2 0,-7 5,-1 5,0 3,1 3,-3 0,-4 -4,1 -4,0 1,-4 3,0 3,-1 2,-2 -1,-3 3,0 0,-3 -1,-3 1,-3 3,0 -1,3 2,3 -1,3 3,0 -2,3 -3,1 -1,3 4,0 3,-1 1,-3 2,-2 1,-2 3,-1 2,-2 3,-4 4,-3 -5,-2 -4,1 0,4 -3,2 -1,2 -3,1 -1,-3 1,-3 2,-2 0,-4 4,-2 4,-3 2,-3 3,6 4,0 4,-1 3,-2 2,-2 2,-3 3,-3 2,-2 -6,0 -3,2 -2,2 -2,3 -4,1 -3,-3 -1,-4 4,2 2,-2 -3,-3 2,-2 3,0 0,3 3,-1 1,-3 3,-1 4,0 1,-4 -2,-5 6,2 3,-1 3,-3 4,-3 -4,-3 -4,1 -5,2 0,-5 1,-4 4,0 3,-1 0,-4 2,-3 3,-1 2,-3 -1,-4 2,-2 4,4 0,-3 1,-3 1,-3 3,-2 2,-2 3,3 3,0 3,0 2,-2 3,0 2,-1 1,3 -2,2 -3,0 0,3 -3,-1 -3,0 -3,2 -1,-4 -3,1 0,3 -2,3 4,0 1,4 -4,0 -1,3 -4,-2 -2,3 -3,3 -2,3 0,5 5,2 1,-4 2,-3 1,-4 4,2 3,-2 2,-2 3,-1 2,-1 0,-3 -4,-1 1,-3 3,0 3,2 3,0 1,-1 0,-3 2,-2 3,-1 3,-1 3,0 1,-2 -3,-3 -2,2 -3,0 0,-3 2,-2 3,0 1,-1 1,-3 1,-2 2,-1 1,-3 3,0 2,-1 3,-1 1,-2 2,-2 2,-2 2,-2 2,-3 0,-4 -2,1 -3,0 1,3 -3,-1 0,3 -1,2 -3,1 -1,3 -2,1 -3,1 -4,0 1,3 -3,0 -1,2 -1,3 -2,1 -2,2 -2,2 -4,-1 -2,1 -3,1 -2,1 -3,0 -1,-3 3,-1 3,-1 1,-2 0,-3 1,-2 1,-2 1,-2 1,-3 1,-2 2,-2 3,0 -1,-3 1,-2 1,-2 3,-1 1,-2 -3,-2 -2,2 -3,-1 -1,2 0,3 -1,3 -2,2 -2,2 -1,2 -1,3 -3,0 1,-3 -1,-3 -3,2 -1,2 -3,1 0,-3 1,-3 3,-1 3,-1 3,1 1,-2 3,-2 0,-3 0,-3 -3,3 -1,2 -3,1 -3,0 1,-3 2,-1 2,-2 2,-2 3,-1 -1,-3 -3,0 -2,1 -1,2 -2,2 -3,1 -1,3 -1,2 1,3 -3,1 -1,2 -1,2 -1,2 2,3 3,2 -3,1 -2,2 -3,1 0,3 -1,3 -4,2 -2,-3 3,0 0,-3 0,-3 2,-2 2,-1 1,-2 -1,-3 -1,-3 2,-2 -1,-3 3,0 2,-2 0,-3 1,-2 1,-2 1,-2 3,0 0,-3 2,-1 3,-1 1,-3 3,0 0,3 3,0 1,-2 1,-2 2,-2 1,-2 2,-2 -5,-1 -1,2 -2,1 -1,2 -3,0 1,-4 -3,0 -1,2 -1,2 -1,2 -1,2 -3,1 -2,-3 1,-1 2,-2 2,-4 -2,1 -3,1 -3,0 -1,2 0,3 -3,1 0,-3 -1,-3 1,-2 -3,1 -2,2 2,3 -2,1 -3,1 -3,0 1,-3 2,-1 -1,-3 -4,0 -1,2 -3,1 0,-4 -3,0 0,3 -3,1 -1,-4 -2,1 -1,2 0,3 -3,1 0,3 1,3 -1,3 -2,-1 -1,3 -3,0 0,-3 3,-3 -3,0 1,-3 2,-1 0,-3 3,-1 0,-4 -2,1 -3,0 -1,2 -1,3 -3,0 0,-3 1,-3 -4,0 -1,2 -3,0 -4,-1 2,3 -1,2 1,3 -3,0 1,3 -3,-1 0,3 0,3 -3,1 -3,1 0,-3 2,-2 1,-2 -1,-3 2,-2 2,-1 1,-3 -3,0 -4,-2 -2,2 3,2 -2,2 -1,2 1,3 -3,0 1,3 -1,2 -3,1 0,-4 -1,-3 2,-2 1,-3 0,-3 -3,0 0,3 -2,2 -2,2 -3,1 -3,0 -1,3 -2,-1 -3,0 -1,2 -2,2 -1,2 0,3 1,3 -3,0 -1,3 3,0 0,3 -4,0 0,3 -3,-1 -3,1 2,-4 2,-2 0,-3 2,-3 1,-2 -4,-1 -1,2 -1,2 -1,2 -1,2 0,3 -2,1 -1,2 -3,0 0,3 -2,2 1,3 -2,2 -2,2 -1,2 -3,0 -1,-3 0,-3 3,1 1,-2 1,-2 0,-3 1,-2 1,-2 -3,-2 -2,-3 1,-3 -1,-3 2,-2 3,-2 2,-2 2,-2 3,-1 1,3 -1,2 -2,1 -1,2 -3,0 1,3 -3,-1 0,3 0,3 3,-1 0,3 3,-1 0,-3 1,-2 1,-2 2,-2 2,-3 4,1 2,-1 1,-2 2,-2 0,-3 1,-2 3,-1 0,4 3,-1 1,-2 1,-2 3,0 0,3 3,-2 2,-2 0,-4 -3,2 -3,0 -4,0 -3,1 0,-3 -4,1 1,3 -3,1 -1,-3 -4,-2 1,3 -1,2 -1,2 4,0 1,3 -3,0 0,3 -3,0 -1,-3 -1,-3 0,-3 0,-3 -3,0 -1,2 -1,2 2,3 -3,0 -2,2 -2,2 -2,2 -2,1 -2,2 -1,3 0,3 0,3 -3,0 -2,1 -3,1 0,3 -1,2 -3,0 -3,1 -3,-2 2,-2 3,0 1,-2 -4,-1 2,-2 3,0 3,-1 3,-1 1,-1 0,-3 1,-2 1,-2 2,-2 3,-2 2,-2 1,-2 2,-1 0,-3 1,-2 -4,2 -1,-3 -5,0 0,4 3,-1 0,3 -2,2 -1,1 -2,2 -2,2 -2,-3 1,-2 2,-2 0,-4 -2,1 -2,2 -2,-3 -2,2 -1,3 3,0 -1,3 0,3 3,0 1,3 -2,1 1,3 -3,2 0,-3 -3,0 -1,2 -2,2 -2,2 -1,2 -1,2 0,3 1,3 3,1 1,3 -3,0 0,3 -1,3 0,3 1,3 2,-3 1,-3 1,-2 2,-1 0,-3 1,-2 2,-1 1,3 0,3 3,0 1,-2 -1,-3 1,-2 0,-3 1,-2 3,0 3,-1 1,3 -2,1 -3,1 4,2 -1,2 -3,0 0,4 -2,3 2,1 0,3 -2,2 -2,3 0,3 -2,2 -3,1 0,-3 2,-2 -1,-3 3,-1 1,-3 -2,-3 -3,0 1,3 -3,-1 0,3 -2,1 2,3 -3,0 -2,1 0,3 3,-1 0,3 -2,2 -3,0 0,3 -3,1 -3,-1 0,3 0,3 0,3 -2,1 1,3 -1,2 -1,3 4,0 2,-1 0,-3 0,-3 1,-2 -1,-3 2,-1 1,-2 3,0 1,-3 2,1 1,-3 3,2 1,-2 2,-1 3,-2 1,-3 1,-2 1,-2 3,1 -1,-3 1,-1 3,0 4,-2 1,-2 2,-2 1,-3 1,-2 0,-3 3,2 3,-1 3,1 -1,4 -4,0 -1,3 -2,3 -2,3 -4,1 -3,2 0,4 -4,0 -1,3 -2,3 -2,1 -2,2 -1,3 -3,2 -1,-4 -3,1 0,3 -3,0 -2,1 0,3 -1,3 3,3 2,-3 1,-3 5,1 3,-1 4,0 0,-4 3,-3 3,-3 2,-3 4,1 0,-5 2,-3 6,2 1,-5 2,-4 4,-1 2,-5 4,-3 -5,-2 2,-3 4,0 -1,-4 0,-3 0,-3 0,-3 0,-3 2,1 1,-3 2,1 3,-1 1,-2 2,-1 3,-1 0,3 -2,2 -4,2 -2,2 -1,2 -2,1 1,3 0,3 2,4 4,-1 4,0 -2,-4 -4,0 0,-3 1,-2 3,1 -1,-3 1,-2 3,0 0,3 3,0 0,-3 3,-1 1,3 3,0 2,-1 -2,4 -3,0 -1,2 -3,0 -3,0 2,4 3,0 4,-1 3,-2 2,-2 1,-2 1,-2 -1,-3 3,0 0,-3 3,1 -1,-3 3,0 -1,-3 1,-3 0,-3 3,-1 0,3 4,1 -1,2 -3,1 0,3 3,-1 1,3 -1,2 -4,-1 -2,3 3,0 -1,3 -3,0 -2,-1 -1,3 -1,3 -3,2 -3,2 -2,3 -2,1 -4,0 -2,2 -4,0 -4,3 -3,-1 -3,5 -2,5 -4,5 -1,7 10,-2 3,-6 2,-6 4,-4 5,1 3,-3 4,1 2,-2 1,-4 1,-3 3,-2 2,1 1,-3 0,-3 3,0 3,-1 1,-3 1,-2 3,0 3,-1 0,3 -2,2 -2,1 -1,2 -2,2 -3,0 0,3 -1,3 -1,3 -4,-2 -1,5 4,1 4,2 2,-3 3,1 1,-4 -4,-2 1,-3 2,-2 2,4 2,-2 1,-1 2,-2 -4,-2 3,-1 1,-1 1,-2 0,-3 -1,-3 3,-1 1,-2 0,-3 0,-3 1,-2 2,-2 3,-1 -1,4 -1,2 0,3 -1,2 4,-1 1,-2 1,-2 0,-3 1,-1 2,-2 2,4 -2,2 -1,4 3,-1 0,3 -2,2 -2,2 -1,-3 -3,1 1,3 -3,1 -1,-3 -3,1 1,3 0,3 -1,2 0,3 -1,2 -1,2 -2,2 -2,2 -1,3 4,2 1,-3 2,-2 3,1 0,-3 0,-3 3,-2 3,-1 0,-3 -3,1 -3,1 1,-4 3,-1 2,-1 3,-1 3,0 -1,3 -2,1 1,3 -1,2 -1,3 -1,3 -2,-3 -2,2 1,3 -1,3 -3,1 -2,2 -4,2 -2,3 -2,-5 -3,2 -2,1 -4,1 -1,3 0,4 -3,3 -4,-1 -3,2 -5,3 -1,-6 3,-5 5,0 3,-2 1,-5 -4,0 -4,1 -3,1 -5,2 -4,2 2,10 1,7 -4,0 -2,4 -3,2 1,4 -3,1 -3,-1 -3,-2 4,-2 2,-5 -4,-1 -4,2 -2,4 -2,3 0,4 4,-2 1,4 3,-2 4,2 4,-1 3,-1 0,-4 3,0 0,-4 4,2 1,-4 3,-2 5,-2 4,-1 4,1 4,0 4,0 2,-3 -6,-2 2,-3 4,0 -3,-5 4,0 3,1 4,-2 2,-3 3,-2 2,-2 4,0 -1,-4 2,-2 2,-2 0,-3 2,-2 1,-2 0,-3 1,-2 1,-2 -1,-3 -3,-2 3,-1 -1,-3 0,-3 0,-3 3,-1 2,-1 0,4 -2,1 1,3 0,3 3,0 1,-2 0,-3 0,-3 1,-2 3,-1 3,0 1,3 -3,1 -1,2 -1,2 0,4 -2,2 -4,0 1,3 -1,2 0,3 -2,2 3,2 -2,2 -2,1 -1,2 0,3 -2,1 -2,2 1,4 2,1 -4,2 -3,-1 -1,3 -3,1 -3,3 -1,4 -4,-1 -2,3 5,2 -4,3 -2,3 -4,1 -4,0 -4,1 -4,-1 -5,0 -4,2 0,4 -4,1 -2,2 -2,1 -1,3 -5,1 -2,3 -5,-3 -2,3 -5,-2 -3,1 -4,3 -5,0 -3,2 -2,6 -1,3 0,3 4,-1 2,-2 2,-1 2,-2 4,0 5,0 0,-4 5,0 -1,4 0,4 -4,0 -2,2 -4,-1 -2,3 -1,3 -5,-1 -5,0 -2,3 -5,2 -1,5 -5,0 -4,-1 -4,3 -5,-3 -2,3 -2,3 -5,2 -4,1 -3,2 -2,3 -3,2 -3,3 -2,1 -4,-1 -2,3 -2,2 -2,2 -2,2 -2,2 -1,3 -3,1 1,3 -3,1 0,3 -1,2 -1,2 -3,0 0,-3 1,-3 0,-3 3,-1 0,-3 1,-2 3,0 1,-3 1,-3 1,-1 2,-2 2,-2 -3,-1 1,-3 -1,-3 1,-2 1,-3 0,-3 3,1 0,-3 2,-2 3,1 2,-3 0,-3 4,0 4,-1 2,-3 2,-3 3,-1 4,-2 3,-3 1,-5 1,-4 2,-2 5,-2 3,-3 6,2 -3,5 -5,2 -3,3 -1,4 0,5 -2,1 -4,2 -4,2 -3,2 -2,3 -4,2 -3,1 -2,2 -2,2 -1,3 -4,-2 1,4 -3,0 -2,1 -1,3 1,4 3,-2 3,-1 2,-1 3,-2 2,-2 2,-3 3,-2 3,-2 4,2 0,-4 3,-1 1,-4 4,0 3,-3 2,5 4,-3 4,0 2,-3 4,-1 3,-3 0,-3 1,-1 -5,0 0,3 -3,1 -1,-4 -2,3 -1,3 -4,0 0,-4 2,-4 3,-3 5,-3 6,-3 2,-6 0,-6 1,-5 5,0 1,6 -1,5 5,1 2,-3 -1,-5 1,-5 0,-6 -6,-4 -2,4 -5,1 -5,2 -2,3 0,5 -1,4 -3,-1 -5,-1 -5,-1 -2,3 -3,3 -5,-3 0,4 -4,0 -3,-1 -2,2 -2,2 -1,3 -4,1 -1,3 -3,2 -2,2 -1,1 -1,2 -3,1 -3,1 0,-3 -3,3 -1,-3 1,-2 3,-1 3,1 -1,-3 1,-2 -2,-3 1,-2 1,-2 -1,-3 -1,-3 3,0 2,3 2,-2 -1,-3 0,-3 3,1 0,-3 4,0 -1,2 0,3 -2,2 2,3 -3,1 -1,2 -3,0 1,3 -2,2 1,4 2,-2 2,-1 1,-3 2,-2 2,1 1,-3 -1,-4 3,1 -1,-3 0,-3 0,-3 1,-1 1,-4 0,-3 1,-2 -3,-2 2,-2 1,-2 -1,-3 -3,-1 -1,2 0,3 -1,3 1,3 1,3 -1,2 -3,1 -1,-3 1,-2 -1,-3 -3,0 -1,2 1,3 0,3 -2,2 -2,1 0,3 -3,1 0,-3 0,-4 1,-2 3,0 -1,-3 -1,-3 1,-2 4,-1 3,-1 1,-2 -1,-3 2,-2 2,-2 0,-3 -1,-3 -3,1 1,3 -2,2 -2,2 0,3 -1,2 -2,1 -3,0 -2,2 0,3 0,3 -2,3 0,3 -1,2 0,3 1,3 -1,2 -3,1 -2,-1 -3,1 -3,1 0,-3 1,-2 0,-3 3,0 0,3 4,0 -1,-3 1,-2 -1,-3 2,-2 1,-3 1,-2 -1,-3 -1,-3 3,-1 2,-2 3,-1 1,-2 -1,-3 3,0 2,-2 -4,-1 2,-2 2,-1 1,-2 3,0 3,0 3,-2 0,-3 2,-2 3,1 -1,2 0,3 0,3 -3,-1 -1,2 0,3 3,0 0,3 -3,1 3,2 3,0 -1,3 0,3 3,0 1,-3 1,-2 -1,-3 0,-3 -3,1 0,-3 2,-2 -1,-3 1,-2 1,-2 0,-3 -4,-2 1,-2 1,-2 -1,-3 -3,1 -1,2 -1,2 -2,2 -2,2 0,3 -3,1 0,-3 -1,-3 1,-2 3,-1 1,-2 0,-3 2,-1 1,-3 3,-1 -1,4 3,-1 2,-1 2,-2 2,-2 1,-2 -1,-3 3,0 3,1 -1,-3 -1,-3 -1,-3 0,-3 1,-3 -3,0 -1,3 -1,3 -2,2 4,1 -1,2 -3,1 0,3 -1,2 -1,2 -3,-1 0,-3 1,-2 0,-3 1,-2 1,-3 1,-2 1,-2 -4,-2 -1,2 -1,2 -2,-1 -4,-2 1,3 -2,1 -1,2 -1,3 0,3 -3,1 -3,-2 0,-3 3,1 0,-3 1,-3 1,-2 -3,-1 -3,0 1,3 -1,2 -3,1 1,3 -1,2 -1,3 -2,2 -2,2 -1,3 -2,1 -1,2 -1,3 -2,1 -3,0 0,-3 3,-1 0,-3 -3,0 -3,-2 0,3 -1,2 0,3 -3,1 0,-3 0,-4 0,-3 1,-2 3,0 3,1 -1,-3 2,-1 1,-2 2,-2 1,-2 3,0 -1,4 -2,2 -1,3 0,3 3,-1 1,-3 2,-2 0,-3 2,-1 -1,-3 0,-3 3,0 1,-2 -4,-2 -3,1 0,3 -3,1 0,-3 -3,0 -2,1 1,3 -1,2 -1,2 -3,2 -1,2 -4,0 -1,2 -2,1 -3,1 -3,1 -1,-3 3,-1 1,-2 3,-1 3,-1 1,-1 3,-1 1,-2 1,-3 0,-3 -3,1 -1,2 -1,2 -3,0 -2,2 -2,2 -4,2 -1,-3 2,-1 2,-2 2,-2 3,-1 1,-3 -3,0 -3,0 -1,2 -2,2 -2,-4 -1,1 -1,2 -3,1 4,2 -2,2 2,3 -1,2 1,3 -3,0 3,3 -2,2 2,1 4,0 0,3 0,3 -2,2 -1,-4 -3,-1 1,3 -3,2 4,2 -1,2 0,3 1,3 -3,0 -1,4 3,0 1,3 -1,2 2,3 -3,0 1,3 0,3 -3,0 2,4 3,-1 1,-3 1,-3 1,-3 -1,-3 3,0 2,-1 0,4 -1,3 3,0 2,-2 4,0 2,-1 1,-4 -2,1 -3,1 -3,0 1,-3 2,-1 3,-1 2,-1 3,-1 0,3 3,-2 0,-3 0,-3 -3,-1 -1,3 -2,-1 -2,2 -3,1 -2,1 -3,1 -3,1 -3,1 -1,-3 2,-2 2,1 1,-2 -1,-3 -4,0 1,-2 2,-2 2,1 0,-3 1,-2 -1,-3 1,-2 -1,-3 3,0 2,-1 0,4 0,3 -1,2 0,3 4,0 -1,2 -3,1 -1,2 0,3 4,-1 2,-2 2,-2 1,-2 1,-2 3,1 1,3 3,-3 0,3 3,-1 0,-3 1,-2 1,-2 3,2 1,-3 -2,-1 1,-3 1,-2 2,-2 1,-3 3,1 0,3 -1,2 -2,2 0,3 3,-1 2,-1 1,-3 3,-1 -3,-2 3,-1 1,-1 1,-3 1,-2 1,-2 1,-2 3,0 -1,4 -1,3 -1,3 1,3 -3,0 -1,3 -2,2 -1,2 0,3 -3,-2 -2,1 -3,0 1,3 3,0 -1,3 -1,3 3,0 -1,3 -3,1 -2,2 -2,1 -1,2 0,3 0,3 -1,2 -3,1 -1,2 -3,0 0,-3 2,-2 1,-2 1,-1 1,-2 0,-3 0,-4 2,1 1,-3 2,1 1,-2 0,-3 -1,-3 -3,0 0,3 -2,2 -3,1 0,3 -1,2 0,3 -2,2 -1,1 0,3 -3,-2 0,3 -1,2 0,3 3,-1 0,3 -3,1 -2,2 0,3 -2,2 -2,-1 0,-3 1,-3 2,-2 -1,-3 -3,0 -1,2 0,3 -3,0 -1,-3 -3,0 -1,2 0,3 -3,1 -2,1 -1,2 -3,1 3,2 0,3 0,3 -1,1 -1,3 4,0 -1,2 -3,2 1,3 0,3 0,3 3,-1 1,-2 -1,-3 1,-2 3,3 0,-3 -1,-3 0,-3 -1,-3 -1,-3 1,-2 0,-3 3,2 0,-3 1,-1 1,-3 3,1 0,3 3,3 -3,0 -1,1 -1,2 -3,1 3,2 -1,2 -1,2 1,3 0,3 3,0 1,-2 -1,-3 1,-3 1,-3 2,-1 2,-2 3,-1 1,-2 3,-1 -2,-3 2,-1 3,-2 1,3 -1,2 0,3 -3,1 1,3 -1,2 -3,-2 -2,1 -1,2 0,3 -3,-2 0,3 0,3 3,0 -1,3 -3,1 -3,1 -3,1 -2,2 -1,2 -2,2 -2,1 -1,2 -3,-3 0,4 1,3 3,-1 3,0 1,-3 2,-2 2,-2 2,-2 2,-1 3,-1 0,3 4,0 -1,-3 1,-1 3,0 3,-1 3,0 3,0 2,-1 -1,4 0,3 0,3 -3,0 0,-3 -3,1 2,-4 -3,0 -2,2 -1,2 -3,1 0,3 -2,1 -2,2 -3,3 -1,-3 1,-2 2,-2 2,-2 -4,-1 -2,2 -2,2 -2,2 0,3 3,0 0,3 -1,2 -3,1 0,-3 -3,0 0,-3 -3,1 -2,1 2,3 -2,1 1,3 -1,3 -2,3 4,0 1,-3 2,-2 0,-3 3,2 0,4 -1,1 -1,2 1,3 3,-1 1,-3 0,-3 1,-2 2,-1 1,-2 1,-2 2,-2 1,-2 3,-1 2,-2 2,-2 1,-2 3,1 0,3 0,3 -3,-1 -1,2 -3,1 -1,2 -2,2 -1,2 -1,2 -3,1 1,3 -1,1 -1,2 0,3 -3,0 -3,1 -1,3 4,-1 0,3 -2,1 -3,1 -3,1 0,-3 1,-2 0,-3 0,-3 -2,-1 -2,2 0,3 0,3 0,4 1,3 0,3 -1,3 3,0 1,-3 1,-2 1,-2 3,-1 3,0 3,-1 0,3 3,0 3,0 0,3 -4,0 0,3 -1,2 -1,2 -2,1 0,3 1,3 -3,1 0,3 3,0 2,-1 1,-2 0,-3 1,-2 1,-2 2,-2 -1,-3 3,0 1,-3 1,-2 3,-1 0,-3 1,-2 -1,-3 -3,0 1,-3 3,0 1,-3 2,-4 -3,0 0,-3 -3,1 1,4 -1,2 -3,0 -1,3 -1,2 0,3 4,1 0,3 -3,-1 -3,0 -2,-3 -3,0 1,-3 3,0 0,-3 1,-2 1,-2 0,-3 3,1 -1,-3 1,-2 1,-2 3,1 -1,-3 2,-1 3,-1 3,1 -2,2 -1,2 1,3 3,1 0,-3 2,-2 1,-2 2,-1 3,-1 2,-1 3,-2 2,-2 2,-2 2,-3 4,0 2,-3 2,-3 4,0 -1,5 -3,4 -5,1 -2,4 -3,2 -2,2 -3,1 -4,0 0,3 -1,3 -2,-3 -2,2 0,3 -2,2 -3,1 1,3 -1,2 -1,2 0,3 0,3 0,3 -1,2 -3,1 2,3 -3,0 1,3 -3,-1 -1,3 -2,1 1,3 -2,1 0,3 -1,2 -1,2 1,3 -3,0 -2,-3 -1,3 -1,3 -2,1 0,3 0,3 -2,2 -1,3 3,0 2,-2 1,-3 1,-2 1,-2 1,-2 2,-1 3,3 1,-2 3,1 -1,4 3,0 1,-2 0,-3 1,-2 1,-3 0,-3 4,1 -1,-4 3,0 1,-3 1,-3 3,-2 3,-2 2,-3 4,1 5,1 -1,-5 4,-2 3,-3 3,-2 4,1 1,-4 5,2 1,-5 5,1 5,-1 -5,7 -5,4 -3,2 -5,0 -3,2 -3,3 -1,5 -2,6 7,2 2,-6 2,-5 5,0 4,0 3,-5 6,1 0,-7 5,-4 3,-2 4,-6 5,-2 4,-2 4,-2 5,-1 0,-4 3,-1 3,-3 3,-2 0,-4 0,-3 2,-4 2,4 0,3 0,4 3,0 2,-2 -1,-3 0,-3 0,-4 2,-4 3,1 2,-4 2,-4 3,-1 3,-4 3,-1 4,0 -1,4 -3,2 -2,1 -2,3 -2,1 -1,3 -1,3 -4,2 -2,2 0,3 1,4 3,0 0,-3 1,-2 1,-2 3,1 2,-4 2,-3 2,-2 2,-1 2,-2 2,-2 1,-4 1,-4 4,0 4,1 2,-3 4,-2 2,-3 4,-1 1,-4 0,-4 2,-3 4,2 1,-4 3,-2 3,0 2,-1 3,-2 3,-1 1,-3 1,-3 2,-2 2,-1 3,-1 1,-3 4,1 -1,2 0,3 -1,2 -3,-2 -1,3 -3,0 1,3 -2,1 -1,3 -3,1 -2,2 -2,2 -4,1 -2,1 1,5 -2,1 -5,-2 2,5 -3,1 0,4 -4,0 -2,2 -2,2 -4,1 0,4 5,0 0,4 -4,1 0,4 1,5 -4,0 -2,4 -3,1 -3,1 -1,1 -1,2 -3,1 0,4 -3,2 -2,4 -4,2 -4,0 -3,3 4,2 -2,2 -3,0 -3,1 0,-4 -1,-4 -3,2 0,3 0,3 -2,1 -3,1 0,3 -1,2 -2,2 0,3 3,-1 2,-1 2,-2 -1,-3 2,-1 3,-1 0,3 0,3 -2,2 -1,2 -1,2 -4,-1 -1,2 -1,3 -1,3 -4,0 0,-4 1,-2 1,-2 -2,-4 0,-3 1,-2 2,-1 -1,-3 2,-1 1,-2 3,0 0,-3 -1,-4 2,-1 2,-2 4,-2 3,4 2,-3 4,0 3,-1 1,-3 2,-1 2,-2 -1,-3 2,-1 3,0 1,-3 2,-1 2,-2 4,-1 0,-6 2,-3 -1,-5 -4,0 -1,4 -1,4 -3,2 -3,2 -2,3 1,3 -4,-1 -1,1 -1,2 0,3 -3,-2 -1,3 -1,3 -3,1 -4,-1 -4,2 -4,-1 -3,2 -2,3 -2,2 4,3 -2,2 -3,0 -4,-2 -2,2 -2,2 -3,3 0,4 -1,1 -3,1 -4,0 4,4 -2,2 -4,0 -2,1 -4,0 -1,3 5,1 -2,3 -4,0 -5,2 -4,0 0,6 -5,-1 -5,0 -1,6 7,2 5,1 5,-3 1,-5 3,-3 6,2 5,-7 4,-2 3,-3 3,-2 -4,-4 4,0 0,-3 0,-3 1,-2 3,-1 1,-2 3,0 -1,4 -3,1 0,3 1,3 -1,2 0,3 -1,4 -1,4 -1,6 -2,6 -4,1 -9,0 -4,-2 -1,6 -4,2 -4,3 -8,-1 -2,6 -6,2 -4,7 -7,0 -5,1 -5,4 -2,4 -5,0 -1,5 -1,7 -5,-2 -1,5 -4,1 -4,0 0,5 -3,2 -4,2 1,-2 1,-3 1,-3 0,-4 2,-2 5,-1 -5,-3 -2,-4 -2,-1 -1,2 -3,1 0,-4 1,-3 3,1 0,-3 3,0 2,-3 -3,0 0,-3 3,-1 4,2 -1,-4 1,-3 3,-1 3,-3 4,3 -2,5 -3,2 0,4 -4,2 -3,2 -3,2 2,4 4,-1 4,0 2,-4 5,-5 4,-4 2,-6 7,-2 2,-5 6,2 3,-5 3,-1 -10,-4 -5,0 -4,2 -2,6 -7,1 0,-5 3,-4 3,-6 3,-3 3,-5 -5,-1 -3,2 -3,2 0,4 -3,2 -2,3 -1,4 -3,-1 -2,3 4,2 -4,2 -2,3 -4,0 1,3 -1,2 -2,2 -3,1 -1,2 0,3 -2,2 -3,0 0,3 0,3 -3,1 0,3 3,-1 0,3 -3,1 1,3 -1,2 -2,2 -3,0 -1,-3 0,-3 3,2 0,-3 -1,-3 0,-3 1,-2 2,-2 1,-2 -1,-3 0,-3 3,-1 0,3 3,-1 0,-4 3,-2 0,-3 3,1 -1,-3 -1,-3 -3,-1 0,3 -2,2 1,3 -3,0 -1,2 -3,1 -3,-1 0,3 1,3 -1,2 0,3 -3,2 -3,0 1,-3 2,-1 0,-4 0,-3 -1,-3 -1,-3 2,-1 -1,-3 3,-1 0,-3 1,-2 0,-3 3,-1 0,-3 -3,0 0,-3 -1,-3 1,-3 2,-1 -1,-3 2,-3 1,-2 1,-2 -1,-3 -3,1 -1,3 -1,2 -1,2 0,3 -3,0 -1,-3 -3,1 1,3 0,3 4,-1 0,3 -2,1 -1,2 -3,1 0,4 3,-2 4,-2 0,3 -1,2 -3,1 0,3 3,-1 0,4 -3,0 -3,2 3,2 -1,4 1,3 -2,3 3,0 0,3 -2,2 -1,3 1,4 -2,4 3,0 2,-2 3,-1 0,3 -2,2 -1,2 -3,0 -2,2 0,4 3,-2 3,-1 0,3 -2,2 -1,2 1,3 -1,2 -1,2 1,3 -1,3 4,-1 0,-3 1,-2 3,-1 0,-3 -3,1 0,-3 2,-2 2,1 3,0 0,3 3,-1 0,-3 1,-1 1,-2 1,-2 0,-3 2,-2 3,-1 0,3 -2,2 1,3 -1,2 -1,2 -1,2 0,3 0,3 -3,0 -1,-3 -3,1 1,3 -3,0 1,3 -3,-1 0,3 -3,1 -3,1 -2,1 2,3 -2,1 1,3 0,3 -3,1 3,2 4,0 1,3 -3,0 -3,1 4,2 -2,1 -2,2 1,3 3,-1 0,3 -3,1 -1,2 -1,3 1,5 2,-2 1,-2 1,-2 2,-2 2,-1 2,-2 0,-3 -3,1 0,-3 1,-3 1,-2 0,-3 1,-2 3,1 0,-3 1,-2 0,-3 -2,-1 -2,2 -1,2 -2,2 -3,0 1,-3 1,-2 2,-2 -3,-2 3,-1 3,0 1,-2 3,1 0,-3 1,-2 3,1 1,3 -1,2 -1,2 -3,0 3,3 4,1 -2,2 -3,0 1,3 -2,2 -3,3 0,3 -2,2 4,1 -2,2 1,3 0,3 2,1 1,3 3,0 0,3 -2,1 3,3 -1,1 -3,1 -1,-3 -3,1 0,3 2,1 0,3 3,-1 2,-2 4,0 1,-2 -1,-3 1,-1 -1,-3 1,-2 -1,-3 -3,1 0,-3 -3,0 -1,-3 1,-2 3,1 -1,-3 0,-3 -3,1 -1,-3 3,-1 1,-2 2,-2 1,-2 3,-1 0,3 -1,3 -1,1 -1,2 0,3 4,-1 2,-2 0,-3 1,-3 0,-3 3,-1 2,-1 2,-3 4,1 1,-4 1,-3 4,1 4,-2 1,5 -5,2 -2,2 -1,2 -4,0 -1,2 -3,1 -2,1 -1,2 0,3 -1,2 0,3 -3,1 -3,0 -1,2 -1,3 3,0 2,-1 3,-1 3,-1 1,-3 1,-2 1,-1 -1,-3 3,0 -1,-3 4,-2 3,0 3,2 0,-3 1,-1 0,-3 3,1 1,4 -1,2 1,3 3,-1 1,-2 -1,-4 0,-4 1,-5 4,-5 2,-3 2,-3 5,1 -1,-4 2,-4 1,-5 -8,2 -3,6 -3,1 -2,3 -1,4 -5,-1 -5,0 -3,2 -6,-2 1,5 -4,1 -2,3 -3,1 -1,3 -3,1 0,-3 -3,0 1,-3 3,-1 3,-2 -3,-1 -3,1 -1,-3 1,-2 3,0 2,-1 4,2 1,-4 3,-3 5,1 5,-1 5,1 0,-7 2,-7 5,-3 1,-5 8,3 8,2 4,2 1,-8 5,0 3,10 6,-4 3,-3 4,-3 7,3 7,4 -6,5 -5,-1 -3,4 -4,1 -7,3 1,5 -1,5 -2,1 0,4 0,4 -1,3 -1,1 -1,3 -2,-1 -1,3 -1,2 -1,3 0,3 3,-1 1,-2 1,-2 2,-2 2,-2 2,-2 1,-3 4,0 4,0 -3,4 -3,1 -1,2 -3,2 -2,2 0,4 -3,3 -2,2 -2,4 2,4 2,4 -4,0 -3,3 -3,3 -1,4 -4,1 -3,3 -6,-4 -2,6 -3,7 -4,3 -4,4 -3,3 -1,4 -3,3 1,5 -4,1 -1,3 -5,-2 1,-3 2,-3 -2,-4 4,0 2,-4 1,-4 2,-3 4,-2 -1,-7 3,-1 4,-3 3,-5 2,-5 2,-3 5,0 0,5 5,-1 -1,-5 1,-3 4,0 0,4 4,-2 1,-3 0,-3 -3,-1 -2,2 -4,-1 -3,-1 -1,3 -3,1 -1,-4 0,-3 3,-4 2,-3 0,-3 2,-2 0,-3 2,-1 -1,-3 3,0 1,-3 3,-1 0,3 -1,3 -1,2 -1,2 -1,2 1,3 -3,-1 -1,2 0,5 4,-2 5,2 -2,-4 0,-3 1,-2 1,-3 1,-3 1,-2 1,-3 1,-5 1,-3 0,-4 2,-3 0,-5 -5,-1 0,5 -4,0 0,3 4,2 -3,3 -2,1 -5,-1 -1,6 -6,1 0,5 -1,4 0,4 -1,2 -3,2 -4,1 -3,-2 0,4 -3,1 -1,2 -3,-2 2,-3 1,-2 -1,-3 -3,-1 0,3 -1,3 -1,3 -2,2 5,2 -2,2 -4,0 -3,0 -3,1 -1,3 -3,-1 0,3 1,3 0,3 0,3 -1,3 -2,2 -3,-1 -1,3 -2,-1 -1,2 -1,2 -1,3 2,3 2,-2 1,-2 2,-2 2,-2 2,3 2,-3 2,-3 2,-2 0,-4 3,-3 -4,-2 3,-3 4,-1 5,1 2,-3 2,-2 2,-2 3,1 -2,-4 4,0 1,3 1,4 -4,2 -3,3 -3,4 -2,5 -4,-6 -2,6 -1,4 -3,4 4,2 -3,3 -4,-2 -1,3 3,5 -4,0 1,4 -3,1 -1,3 2,4 -3,0 -3,-2 0,-3 -3,1 -1,2 -3,-1 -1,2 -1,2 0,3 -3,1 -3,1 -2,2 -1,-4 -3,-2 0,-3 1,-3 0,-4 2,-2 1,-2 3,-2 3,-1 0,3 -2,2 -1,2 -1,2 -2,1 0,3 0,3 2,1 3,0 -1,-3 1,-2 1,-2 1,-3 2,-2 1,4 2,-2 3,0 3,0 1,-3 1,-3 1,-3 -3,-2 -1,3 -2,1 0,3 -3,1 0,-3 -3,0 -1,-3 -1,-3 1,-3 0,-3 -3,0 -1,3 -1,2 1,3 -3,-1 -1,2 -1,2 -3,-3 1,-3 1,-2 2,-1 1,-2 1,-2 3,-1 -2,-3 -3,1 -1,-3 3,-1 1,-3 1,-2 3,0 0,-3 -3,0 0,-3 -4,2 0,3 0,3 -3,0 -1,2 -2,1 -1,2 1,3 3,-1 0,3 -2,2 -4,-2 2,4 1,3 -1,3 -1,2 -1,2 5,0 -1,2 -1,2 0,3 -1,2 0,4 -1,3 1,4 3,-1 0,3 -2,2 4,1 -1,2 -3,2 4,2 -1,3 -3,2 -1,6 5,-1 -1,3 -3,3 4,1 4,-1 1,-3 1,-3 -4,-2 2,-3 3,-2 0,-3 -3,1 2,-4 -3,0 1,-3 3,0 0,-3 3,0 3,-1 1,3 -1,2 -3,0 0,3 0,3 3,0 1,-3 3,0 1,-1 0,-3 -1,-3 0,-3 -3,0 0,-3 3,-1 2,1 1,3 3,-1 0,4 -2,1 0,3 1,3 1,3 -3,0 -4,0 1,3 2,1 3,-1 0,3 -2,2 -1,2 -1,3 -1,3 -2,1 -3,0 0,-3 3,-1 0,-3 -3,0 0,-3 3,0 1,-1 -3,-3 -3,1 -2,2 1,3 0,3 -1,3 1,3 -2,1 -3,0 -3,1 4,2 1,3 -4,0 -4,2 6,3 4,-2 1,-3 0,-3 3,-1 0,3 3,-1 0,-3 4,1 1,-2 1,-2 1,-1 0,-3 1,-2 1,-2 2,-3 0,-3 3,1 0,-4 -3,-1 -1,-4 2,-2 3,3 3,0 4,0 1,-4 4,-3 2,-3 3,-4 1,-5 5,-1 5,-2 4,-3 1,-7 6,-3 7,0 6,2 8,2 4,-6 6,2 8,5 6,-4 10,1 5,-4 6,0 4,-4 3,-4 5,1 -1,5 6,0 0,-4 0,-4 4,1 0,-4 -3,-1 -4,2 -4,0 0,-4 4,-1 3,-2 1,-3 -3,-3 -2,1 0,3 -2,1 -3,0 -2,3 -1,4 -4,2 -5,0 -5,-1 -8,1 -3,6 -10,1 1,-8 4,-4 1,-6 -6,-2 -4,3 -3,4 -1,6 -6,-2 -4,3 -4,5 -7,-2 2,-4 4,-1 3,-5 -3,-4 -2,-3 2,-2 3,-2 2,-3 1,-3 0,-4 4,1 2,-3 3,-3 3,0 1,-4 5,0 -1,6 -3,3 -4,0 -1,3 -2,2 -3,1 0,3 -4,2 -2,3 1,4 4,0 1,-4 3,-1 3,-4 5,-3 6,1 4,-4 1,-7 4,-4 3,-5 3,-3 3,-1 2,-3 2,-3 2,-2 -1,-4 1,-3 2,-3 -2,-5 2,-1 0,-5 4,0 2,5 -1,4 0,3 1,4 -4,0 0,4 3,1 -3,3 -2,2 -2,2 -1,3 -2,2 -3,2 4,2 -4,2 -2,2 -2,3 -1,5 -2,4 -4,4 0,7 6,-1 2,-4 3,-3 0,-5 1,-4 2,-3 1,-3 3,-1 3,1 4,-1 3,1 1,-3 4,-1 -2,-4 -3,-1 -2,2 -2,2 -3,1 -3,-1 2,-3 2,-2 2,-2 1,-4 4,-1 0,4 5,-2 -1,4 4,3 4,0 -2,5 -2,3 -2,2 -2,1 -4,0 -3,0 1,3 -2,2 1,3 -2,2 0,3 -4,0 0,-3 1,-3 1,-3 0,-3 -3,-1 -2,2 0,3 -1,2 0,4 0,3 -1,4 -1,4 6,2 0,-4 2,-1 1,-3 4,0 2,-2 -1,-3 1,-3 1,-2 1,-3 4,1 -2,2 0,3 -1,3 4,1 1,-2 4,0 4,1 -1,3 -3,0 -2,1 4,3 -3,1 0,3 4,2 2,-2 1,-3 1,-3 1,-3 1,-4 2,-4 2,-3 2,-3 -6,0 -2,2 -2,2 -2,3 -4,0 -3,1 2,-5 2,-2 2,-2 2,-3 3,-6 6,0 2,-3 5,-1 2,-4 5,-3 -5,-2 1,-4 6,-2 0,5 5,-1 4,-1 4,-2 5,3 -4,2 -3,2 -4,1 -3,2 -2,4 -3,2 -1,4 -1,3 -3,0 -1,3 -2,3 -1,3 -2,2 -2,2 -1,5 -2,5 5,1 -2,1 -1,3 -4,-2 0,3 -1,3 -2,2 -3,1 0,4 -3,2 0,5 -4,4 -5,3 -5,1 -5,6 -4,6 -8,-1 -7,0 -10,-1 -8,-5 -4,8 -5,6 -12,-2 5,-9 -6,-1 -7,-4 -2,6 -4,2 6,8 -10,-3 -3,5 -5,-2 -4,3 -4,5 -3,2 -1,4 -5,0 -4,0 -1,4 -1,3 -3,1 -2,2 0,3 -1,2 1,3 -3,1 0,3 -3,1 -3,0 -1,2 -2,1 -3,1 -1,3 -1,2 4,1 0,-3 2,-1 4,-2 0,3 -1,2 -1,2 Z"
       id="path10" />
  </g>
</svg>
